<svg width="278" height="510" fill="#000" xmlns="http://www.w3.org/2000/svg">

 <g>
  <title>Layer 1</title>
  <g>
   <g>
    <g>
     <path tyle="fill:#000;" d="m274.63507,387.23422l-123.307,-128.533l123.2,-123.2c4.16,-4.16 4.16,-10.88 0,-15.04c-0.107,-0.107 -0.213,-0.213 -0.32,-0.32l-128,-117.333c-4.373,-3.947 -11.093,-3.733 -15.04,0.64c-1.813,1.92 -2.773,4.587 -2.773,7.253l0,224.107l-109.76,-114.24c-4.053,-4.267 -10.88,-4.373 -15.04,-0.32c-4.16,4.053 -4.373,10.88 -0.32,15.04l118.187,123.093l-118.08,117.973c-4.053,4.267 -3.947,10.987 0.213,15.04c4.16,3.947 10.667,3.947 14.827,0l109.867,-109.76l0,219.627c0,5.867 4.8,10.667 10.667,10.667c2.453,0 4.907,-0.853 6.827,-2.453l128,-106.667c4.48,-3.733 5.12,-10.453 1.387,-15.04c-0.215,-0.214 -0.322,-0.427 -0.535,-0.534zm-125.013,-352.427l101.867,93.44l-101.867,101.974l0,-195.414zm0,443.734l0,-190.827l101.76,105.92l-101.76,84.907z"/>
    </g>
   </g>
   <g/>
   <g/>
   <g/>
   <g/>
   <g/>
   <g/>
   <g/>
   <g/>
   <g/>
   <g/>
   <g/>
   <g/>
   <g/>
   <g/>
   <g/>
  </g>
 </g>
</svg>