<svg height="512" viewBox="0 0 128 128" width="512" xmlns="http://www.w3.org/2000/svg"><g><path d="m109.708 55.175a27.368 27.368 0 0 0 -27.291-25.8 27.063 27.063 0 0 0 -18.417 7.144 27.063 27.063 0 0 0 -18.417-7.144 27.368 27.368 0 0 0 -27.291 25.8 21.873 21.873 0 0 0 3.583 43.45h84.25a21.873 21.873 0 0 0 3.583-43.45zm-3.583 39.95h-84.25a18.371 18.371 0 0 1 -1.713-36.663 1.749 1.749 0 0 0 1.588-1.742v-.039a23.826 23.826 0 0 1 40.99-16.5 1.806 1.806 0 0 0 2.52 0 23.826 23.826 0 0 1 40.99 16.5v.039a1.749 1.749 0 0 0 1.588 1.742 18.371 18.371 0 0 1 -1.713 36.663z"/><path d="m82.417 39.375a1.75 1.75 0 0 0 0 3.5 13.869 13.869 0 0 1 13.833 13.732 1.75 1.75 0 0 0 1.75 1.738h.013a1.751 1.751 0 0 0 1.738-1.763 17.378 17.378 0 0 0 -17.334-17.207z"/></g></svg>