<svg width="124" height="92" viewBox="0 0 124 92" fill="none" xmlns="http://www.w3.org/2000/svg">
    <path d="M62.0009 57.8813C68.4088 57.8813 73.6034 52.5619 73.6034 46.0001C73.6034 39.4383 68.4088 34.1189 62.0009 34.1189C55.593 34.1189 50.3984 39.4383 50.3984 46.0001C50.3984 52.5619 55.593 57.8813 62.0009 57.8813Z" fill="#003556"/>
    <path d="M86.5973 20.8119C89.8335 24.1222 92.4009 28.0533 94.1526 32.3803C95.9042 36.7074 96.8058 41.3456 96.8058 46.0297C96.8058 50.7138 95.9042 55.352 94.1526 59.6791C92.4009 64.0061 89.8335 67.9372 86.5973 71.2475M37.4028 71.1881C34.1665 67.8778 31.5991 63.9467 29.8475 59.6197C28.0958 55.2926 27.1942 50.6544 27.1942 45.9703C27.1942 41.2862 28.0958 36.648 29.8475 32.3209C31.5991 27.9939 34.1665 24.0628 37.4028 20.7525M103.015 4C113.89 15.1403 120 30.2477 120 46C120 61.7523 113.89 76.8597 103.015 88M20.9852 88C10.1096 76.8597 4 61.7523 4 46C4 30.2477 10.1096 15.1403 20.9852 4" stroke="url(#paint0_radial)" stroke-width="7" stroke-linecap="round" stroke-linejoin="round"/>
    <defs>
        <radialGradient id="paint0_radial" cx="0" cy="0" r="1" gradientUnits="userSpaceOnUse" gradientTransform="translate(62 46) rotate(90) scale(88 121.524)">
            <stop stop-color="#003556"/>
            <stop offset="0.792997" stop-color="#003556" stop-opacity="0"/>
        </radialGradient>
    </defs>
</svg>
