<svg id="Capa_1" enable-background="new 0 0 511.999 511.999" height="512" viewBox="0 0 511.999 511.999" width="512" xmlns="http://www.w3.org/2000/svg"><g><path d="m144.998 254.999h171.375c8.284 0 15-6.716 15-15s-6.716-15-15-15h-171.375c-8.284 0-15 6.716-15 15 0 8.285 6.716 15 15 15z"/><path d="m175.002 194.994h141.371c8.284 0 15-6.716 15-15s-6.716-15-15-15h-141.371c-8.284 0-15 6.716-15 15s6.716 15 15 15z"/><path d="m144.998 315.005h152.281c8.284 0 15-6.716 15-15s-6.716-15-15-15h-152.281c-8.284 0-15 6.716-15 15s6.716 15 15 15z"/><path d="m245.533 345.011h-100.535c-8.284 0-15 6.716-15 15s6.716 15 15 15h100.535c8.284 0 15-6.716 15-15s-6.716-15-15-15z"/><path d="m511.999 258.56c0-12.02-4.682-23.321-13.182-31.82-8.498-8.499-19.799-13.181-31.819-13.181s-23.321 4.681-31.82 13.181l-33.803 33.803v-142.441c25.849-6.678 45-30.195 45-58.101 0-33.084-26.916-60-60-60h-311.377c-41.354 0-74.998 33.643-74.998 74.997v361.994c0 8.284 6.716 15 15 15h44.998v45.006c0 8.284 6.716 15 15 15h311.377c8.284 0 15-6.716 15-15v-109.175l97.442-97.442c8.5-8.501 13.182-19.801 13.182-31.821zm-160.238 136.451-21.218.003.003-21.217 86.949-86.949 21.214 21.214zm64.614-335.011c0 16.542-13.458 30-30 30h-259.443c5.122-8.832 8.066-19.076 8.066-30 0-10.925-2.95-21.167-8.072-30h259.449c16.542 0 30 13.458 30 30zm-356.377 45.001v316.992h-29.998v-346.995c0-24.812 20.186-44.998 44.998-44.998 16.542 0 30 13.458 30 30s-13.458 30-30 30c-8.284.001-15 6.716-15 15.001zm311.377 376.998h-281.377v-361.998h281.377v170.542l-66.435 66.434c-2.813 2.813-4.393 6.627-4.393 10.605l-.005 36.22-5.609 5.608c-5.857 5.857-5.858 15.355-.001 21.214 2.93 2.929 6.769 4.394 10.607 4.394 3.839 0 7.677-1.465 10.607-4.393l5.609-5.609 36.222-.005c3.978-.001 7.792-1.581 10.604-4.393l2.794-2.794zm106.229-212.832-17.683 17.683-21.214-21.214 17.683-17.683c2.833-2.833 6.601-4.394 10.607-4.394 4.007 0 7.774 1.561 10.607 4.395 2.834 2.833 4.395 6.6 4.395 10.606s-1.56 7.772-4.395 10.607z"/><path d="m245.533 405.017h-100.535c-8.284 0-15 6.716-15 15s6.716 15 15 15h100.535c8.284 0 15-6.716 15-15s-6.716-15-15-15z"/></g></svg>